{
  "accessors": [
    {
      "bufferView": 2,
      "componentType": 5126,
      "count": 30292,
      "max": [
        0.5804539918899536,
        0.4375460147857666,
        1.25
      ],
      "min": [
        -0.5804539918899536,
        -0.4375460147857666,
        -1.25
      ],
      "type": "VEC3"
    },
    {
      "bufferView": 2,
      "byteOffset": 363504,
      "componentType": 5126,
      "count": 30292,
      "max": [
        0.9999778866767883,
        0.9999428987503052,
        0.9999364614486694
      ],
      "min": [
        -0.9999471306800842,
        -0.9999821186065674,
        -0.9999368786811829
      ],
      "type": "VEC3"
    },
    {
      "bufferView": 1,
      "componentType": 5126,
      "count": 30292,
      "max": [
        0.9992240071296692,
        1.9989999532699585
      ],
      "min": [
        0.5030249953269958,
        1.5006799697875977
      ],
      "type": "VEC2"
    },
    {
      "bufferView": 0,
      "componentType": 5125,
      "count": 166416,
      "type": "SCALAR"
    },
    {
      "bufferView": 2,
      "byteOffset": 727008,
      "componentType": 5126,
      "count": 73,
      "max": [
        0.43668198585510254,
        0.06762000173330307,
        1.0735499858856201
      ],
      "min": [
        0.32504498958587646,
        0.034738000482320786,
        0.9781699776649475
      ],
      "type": "VEC3"
    },
    {
      "bufferView": 2,
      "byteOffset": 727884,
      "componentType": 5126,
      "count": 73,
      "max": [
        0.8985791206359863,
        0.9887120127677917,
        0.3717849850654602
      ],
      "min": [
        -0.9119331240653992,
        0.202114999294281,
        -0.9602631330490112
      ],
      "type": "VEC3"
    },
    {
      "bufferView": 1,
      "byteOffset": 242336,
      "componentType": 5126,
      "count": 73,
      "max": [
        0.6808590292930603,
        1.925879955291748
      ],
      "min": [
        0.5936040282249451,
        1.8953700065612793
      ],
      "type": "VEC2"
    },
    {
      "bufferView": 0,
      "byteOffset": 665664,
      "componentType": 5125,
      "count": 300,
      "type": "SCALAR"
    }
  ],
  "asset": {
    "extras": {
      "author": "YuiJAV (https://sketchfab.com/yuijav)",
      "license": "CC-BY-4.0 (http://creativecommons.org/licenses/by/4.0/)",
      "source": "https://sketchfab.com/3d-models/naked-girl-2325bbffed7b473ea1a17c59987ebc8e",
      "title": "Naked Girl"
    },
    "generator": "Sketchfab-12.29.0",
    "version": "2.0"
  },
  "bufferViews": [
    {
      "buffer": 0,
      "byteLength": 666864,
      "name": "floatBufferViews",
      "target": 34963
    },
    {
      "buffer": 0,
      "byteLength": 242920,
      "byteOffset": 666864,
      "byteStride": 8,
      "name": "floatBufferViews",
      "target": 34962
    },
    {
      "buffer": 0,
      "byteLength": 728760,
      "byteOffset": 909784,
      "byteStride": 12,
      "name": "floatBufferViews",
      "target": 34962
    }
  ],
  "buffers": [
    {
      "byteLength": 1638544,
      "uri": "scene.bin"
    }
  ],
  "images": [
    {
      "uri": "textures/blank_baseColor.jpeg"
    }
  ],
  "materials": [
    {
      "doubleSided": true,
      "name": "blank",
      "pbrMetallicRoughness": {
        "baseColorTexture": {
          "index": 0
        },
        "metallicFactor": 0.0,
        "roughnessFactor": 0.9826794919243113
      }
    },
    {
      "doubleSided": true,
      "name": "lambert2SG",
      "pbrMetallicRoughness": {
        "baseColorTexture": {
          "index": 0
        },
        "metallicFactor": 0.0,
        "roughnessFactor": 0.9826794919243113
      }
    }
  ],
  "meshes": [
    {
      "name": "Object_0",
      "primitives": [
        {
          "attributes": {
            "NORMAL": 1,
            "POSITION": 0,
            "TEXCOORD_0": 2
          },
          "indices": 3,
          "material": 0,
          "mode": 4
        }
      ]
    },
    {
      "name": "Object_1",
      "primitives": [
        {
          "attributes": {
            "NORMAL": 5,
            "POSITION": 4,
            "TEXCOORD_0": 6
          },
          "indices": 7,
          "material": 1,
          "mode": 4
        }
      ]
    }
  ],
  "nodes": [
    {
      "children": [
        1
      ],
      "matrix": [
        1.0,
        0.0,
        0.0,
        0.0,
        0.0,
        2.220446049250313e-16,
        -1.0,
        0.0,
        0.0,
        1.0,
        2.220446049250313e-16,
        0.0,
        0.0,
        0.0,
        0.0,
        1.0
      ],
      "name": "Sketchfab_model"
    },
    {
      "children": [
        2,
        3
      ],
      "name": "model.obj.cleaner.materialmerger.gles"
    },
    {
      "mesh": 0,
      "name": "Object_2"
    },
    {
      "mesh": 1,
      "name": "Object_3"
    }
  ],
  "samplers": [
    {
      "magFilter": 9729,
      "minFilter": 9987,
      "wrapS": 10497,
      "wrapT": 10497
    }
  ],
  "scene": 0,
  "scenes": [
    {
      "name": "Sketchfab_Scene",
      "nodes": [
        0
      ]
    }
  ],
  "textures": [
    {
      "sampler": 0,
      "source": 0
    }
  ]
}
